**ABCDEFGHIJKLMNOPQRSTUVWXYZabcdefghijklmnopqrstuvwxyz**************************
**PARASOLID !"#$%&'()*+,-./:;<=>?@[\]^_`{|}~0123456789**************************
**PART1;
MC=AMD64;
MC_MODEL=Intel64 Family 6 Model 142 Stepping 12, GenuineIntel;
MC_ID=unknown;
OS=Windows_NT;
OS_RELEASE=unknown;
FRU=Parasolid Version 32.1, build 255,  1- 1-2021;
APPL=SOLIDWORKS 2021-2021166;
SITE=;
USER=unknown;
FORMAT=text;
GUISE=transmit;
KEY=pendulum_arm_157_mm;
FILE=pendulum_arm_157_mm.x_t;
DATE=Mon Nov  8 15:15:19 2021;
**PART2;
SCH=SCH_3201255_32001;
USFLD_SIZE=0;
**PART3;
**END_OF_HEADER*****************************************************************
T51 : TRANSMIT FILE created by modeller version 320125523 SCH_3201255_32001_1300
6229 0 12 34 CCCCCCI4 mesh1006 0 I8 polyline1008 0 CCCCCCCDI5 owner1040 0 CCCCCC
I13 boundary_mesh1006 0 I17 boundary_polyline1008 0 CCCA16 index_map_offset0 0 1
 dA9 index_map82 0 A17 node_id_index_map82 0 A20 schema_embedding_map82 0 A5 chi
ld12 0 A14 lowest_node_id0 0 1 dA16 mesh_offset_data206 0 Z1 810 2 3 0 0 0 0 0 0
 1e3 1e-8 0 4 0 1 0 1 1 5 6 7 8 0 0 9 10 11 0 0 0 0 0 0 0 81 255 2 2 797 12 1 13
 0 0 0 0 14 70 11 CI9 list_type0 0 1 uI10 notransmit0 0 1 lCCCDCCDI12 finger_ind
ex0 0 1 dI12 finger_block1012 0 CZ3 0 4 T1 0 0 10 20 1 15 15 13 255 5 88 0 1 0 1
6 0 0 17 0 51 255 6 660 0 18 19 0 0 +-.00514142842854285 -.155 0 0 0 1 .002 1 0
 0 30 255 7 610 0 10 20 0 0 --.00714142842854285 -.155 .01 0 0 -1 29 255 8 593 0
 11 21 0 -.00714142842854285 -.155 0 19 8 CCCCCCCA5 owner12 0 Z9 30 0 1 17 0 22
 V0 16 255 10 608 0 ?23 0 24 7 0 0 1 18 255 11 591 0 25 0 26 8 ?1 17 255 25 0 27
 28 29 11 30 31 0 32 +18 26 582 0 33 11 34 21 ?1 17 33 0 35 36 37 26 38 39 0 40
 +18 34 565 0 23 26 41 42 ?1 29 21 584 0 26 42 8 .00714142842854285 -.155 0 29 4
2 567 0 34 43 21 -.00714142842854285 -.155 .01 29 43 564 0 41 44 42 .00714142842
854285 -.155 .01 18 41 562 0 45 34 46 43 ?1 29 44 549 0 46 47 43 -.0051414284285
4285 -.157 .01 18 46 547 0 48 41 49 44 ?1 29 47 546 0 49 50 44 .0051414284285428
5 -.157 .01 18 49 544 0 51 46 52 47 ?1 29 50 543 0 52 53 47 .00514142842854285 -
.157 0 18 52 541 0 54 49 55 50 ?1 29 53 540 0 55 56 50 -.00514142842854285 -.157
 0 18 55 538 0 30 52 57 53 ?1 29 56 436 0 57 58 53 .00714142842854285 -.00880827
541091736 0 18 57 434 0 36 55 59 56 ?1 29 58 433 0 59 60 56 .00714142842854285 -
.00880827541091736 .01 18 59 431 0 61 57 62 58 ?1 29 60 418 0 62 63 58 -.0080942
8561902857 -.00587218360727825 0 18 62 416 0 64 59 65 60 ?1 29 63 415 0 65 66 60
 .00809428561902857 -.00587218360727825 0 18 65 413 0 67 62 68 63 ?1 29 66 412 0
 68 69 63 -.00809428561902857 -.00587218360727825 .01 18 68 410 0 70 65 71 66 ?1
 29 69 409 0 71 72 66 .00809428561902857 -.00587218360727825 .01 18 71 407 0 73
 68 74 69 ?1 29 72 400 0 74 75 69 -.00714142842854285 -.00880827541091736 .01 18
 74 398 0 76 71 77 72 ?1 29 75 397 0 77 78 72 -.00714142842854285 -.008808275410
91736 0 18 77 395 0 28 74 79 75 ?1 29 78 71 0 80 81 75 .00166664333317 .00272 0
 18 80 65 0 82 83 84 78 ?1 29 81 72 0 84 85 78 -.00166664333317 .00272 0 18 84 6
6 0 86 80 0 81 ?1 29 85 27 0 79 87 81 .00166664333317 .00272 .01 18 79 25 0 88 7
7 83 85 ?1 29 87 24 0 83 0 85 -.00166664333317 .00272 .01 18 83 22 0 89 79 80 87
 ?1 17 89 0 90 91 92 83 86 93 0 94 -15 255 90 81 0 92 95 0 17 91 0 90 82 89 79 9
6 97 0 0 +17 92 0 90 89 82 84 98 99 0 0 -17 86 0 100 101 94 84 89 93 0 102 +16 9
3 74 0 ?86 103 104 105 0 0 1 17 94 0 100 86 106 83 88 107 0 96 -15 100 79 0 101
 108 0 17 106 0 100 94 101 79 82 104 0 91 -17 88 0 109 96 96 79 94 107 0 106 +16
 107 12 0 ?88 110 97 111 0 0 1 17 96 0 109 88 88 83 91 97 0 0 -15 109 5 0 96 112
 113 16 97 7 0 ?91 107 114 115 0 0 1 16 114 414 0 ?116 97 117 118 0 0 1 31 255 1
15 9 0 97 119 111 0 +0 0 .01 0 0 1 1 0 0 .00319 30 119 281 0 120 121 115 0 +-.00
714142842854285 -.157 0 0 1 0 30 111 14 0 107 115 122 0 +0 .00272 .01 1 0 0 31 1
22 19 0 110 111 123 0 +0 0 .01 0 0 1 1 0 0 .01 16 110 408 0 ?124 104 107 122 0 0
 1 31 123 70 0 99 122 125 0 +0 0 0 0 0 1 1 0 0 .00319 16 99 60 0 ?98 117 120 123
 0 0 1 30 125 69 0 117 123 118 0 +0 .00272 0 1 0 0 16 117 55 0 ?101 114 99 125 0
 0 1 31 118 68 0 114 125 126 0 +0 0 0 0 0 1 1 0 0 .01 30 126 86 0 104 118 105 0
 +.00166664333317 .00272 .01 0 0 -1 16 104 73 0 ?82 93 110 126 0 0 1 30 105 87 0
 93 126 127 0 +-.00166664333317 .00272 .01 0 0 -1 30 127 403 0 103 105 128 0 --.
00714142842854285 -.00880827541091737 0 0 0 1 16 103 401 0 ?129 130 93 127 0 0 1
 30 128 421 0 130 127 131 0 +.00809428561902857 -.00587218360727825 .01 0 0 -1 1
6 130 419 0 ?132 133 103 128 0 0 1 30 131 427 0 133 128 134 0 --.008094285619028
57 -.00587218360727825 .01 0 0 -1 16 133 425 0 ?70 135 130 131 0 0 1 30 134 439
 0 135 131 136 0 +.00714142842854285 -.00880827541091737 .01 0 0 1 16 135 437 0
 ?137 138 133 134 0 0 1 31 136 467 0 138 134 139 0 +-.01214142842854284 -.008808
27541091737 0 0 0 1 1 0 0 .005 16 138 443 0 ?64 140 135 136 0 0 1 31 139 468 0 1
40 136 141 0 --.01214142842854284 -.00880827541091737 .01 0 0 1 1 0 0 .005 16 14
0 449 0 ?142 143 138 139 0 0 1 31 141 469 0 143 139 144 0 +.01214142842854284 -.
00880827541091737 0 0 0 1 1 0 0 .005 16 143 455 0 ?145 146 140 141 0 0 1 31 144
 470 0 146 141 147 0 -.01214142842854284 -.00880827541091737 .01 0 0 1 1 0 0 .00
5 16 146 461 0 ?73 148 143 144 0 0 1 30 147 552 0 148 144 149 0 +-.0051414284285
4285 -.157 0 0 0 -1 16 148 550 0 ?150 151 146 147 0 0 1 30 149 558 0 151 147 152
 0 +.00514142842854285 -.157 .01 0 0 1 16 151 556 0 ?153 154 148 149 0 0 1 31 15
2 570 0 154 149 155 0 +-.00514142842854285 -.155 .01 0 0 1 1 0 0 .002 16 154 568
 0 ?48 156 151 152 0 0 1 31 155 577 0 156 152 157 0 +.00514142842854285 -.155 .0
1 0 0 1 1 0 0 .002 16 156 575 0 ?45 39 154 155 0 0 1 30 157 587 0 39 155 158 0 -
.00714142842854285 -.155 0 0 0 1 16 39 585 0 ?33 31 156 157 0 0 1 31 158 596 0 3
1 157 20 0 --.00514142842854285 -.155 0 0 0 1 1 0 0 .002 16 31 594 0 ?25 24 39 1
58 0 0 1 31 20 603 0 24 158 7 0 -.00514142842854285 -.155 0 0 0 1 1 0 0 .002 16
 24 601 0 ?54 10 31 20 0 0 1 17 54 0 27 29 40 52 159 24 0 160 +15 27 129 0 40 16
1 0 17 29 0 27 25 54 55 160 162 0 0 -17 40 0 27 54 145 26 36 163 0 159 -17 159 0
 164 38 165 26 54 24 0 0 -17 160 0 166 153 150 52 29 162 0 165 +15 166 269 0 160
 167 0 17 153 0 166 168 160 49 165 151 0 169 +17 150 0 166 160 168 55 170 148 0
 29 +16 162 539 0 ?160 171 172 173 0 0 1 17 165 0 164 159 51 52 153 151 0 0 -15
 164 628 0 159 174 0 17 51 0 164 165 38 49 45 156 0 153 -17 38 0 164 51 159 41 3
3 39 0 0 -17 45 0 113 61 169 41 51 156 0 37 +15 113 6 0 169 112 0 17 61 0 113 73
 45 59 37 175 0 137 +17 169 0 113 45 48 49 168 171 0 0 -17 37 0 35 33 137 41 61
 175 0 38 -15 35 262 0 37 176 0 17 137 0 35 37 36 59 177 135 0 178 +16 175 563 0
 ?61 163 179 180 0 0 1 16 163 583 0 ?36 120 175 121 0 0 1 16 179 566 0 ?76 175 1
71 181 0 0 1 30 180 283 0 175 181 121 0 +.00714142842854285 -.157 .01 0 1 0 30 1
81 284 0 179 182 180 0 +-.00714142842854285 -.157 .01 0 1 0 30 121 282 0 163 180
 119 0 +.00714142842854285 -.157 0 0 1 0 30 182 289 0 171 173 181 0 +.0071414284
2854285 -.157 .01 -1 0 0 16 171 545 0 ?168 179 162 182 0 0 1 30 173 291 0 162 18
3 182 0 +-.00714142842854285 -.157 0 1 0 0 31 183 370 0 184 185 173 0 +0 -.15 0
 0 0 -1 -1 0 0 .00611 16 184 351 0 ?186 172 0 183 0 0 1 31 185 371 0 172 0 183 0
 +0 -.15 .01 0 0 -1 -1 0 0 .00611 16 172 348 0 ?187 162 184 185 0 0 1 17 187 0 1
88 187 187 0 189 172 0 0 +15 188 342 0 187 112 109 17 189 0 190 189 189 0 187 17
2 0 0 -15 190 357 0 189 191 192 14 255 191 354 193 ?194 167 190 5 195 -0 0 194 1
67 22 15 192 358 0 186 191 0 17 186 0 192 186 186 0 196 184 0 0 +17 196 0 197 19
6 196 0 186 184 0 0 -15 197 334 0 196 161 198 14 161 131 199 ?95 112 197 5 200 -
0 0 95 112 22 15 198 48 0 98 161 27 17 98 0 198 102 102 80 92 99 0 0 +17 102 0 1
98 98 98 84 101 117 0 92 -17 101 0 100 106 86 80 102 117 0 98 +81 1 199 799 201
 161 202 0 193 203 204 14 95 82 203 ?108 161 90 5 205 +0 0 108 161 22 14 112 141
 206 ?161 16 188 5 207 +0 0 161 16 22 50 255 200 67 0 161 207 208 0 +0 0 0 0 0 1
 1 0 0 13 22 31 0 0 0 0 0 0 9 16 14 16 148 209 ?112 0 210 5 208 -0 0 112 0 22 81
 1 209 802 201 16 211 0 206 212 213 15 210 146 0 116 16 0 51 208 83 0 16 200 214
 0 -0 0 .01 0 0 -1 .01 -1 0 0 50 214 84 0 108 208 205 0 +0 .00272 .01 0 1 0 0 0
 1 14 108 80 212 ?215 95 100 5 214 -0 0 215 95 22 51 205 85 0 95 214 216 0 -0 0
 .01 0 0 -1 .00319 -1 0 0 51 216 496 0 194 205 217 0 +-.01214142842854284 -.0088
0827541091737 .01 0 0 -1 .005 -1 0 0 14 194 484 218 ?219 191 220 5 216 -0 0 219
 191 22 51 217 517 0 219 216 19 0 +.01214142842854284 -.00880827541091737 .01 0
 0 -1 .005 -1 0 0 14 219 505 221 ?174 194 222 5 217 -0 0 174 194 22 51 19 639 0
 174 217 6 0 +.00514142842854285 -.155 0 0 0 -1 .002 -1 0 0 14 174 627 223 ?18 2
19 164 5 19 +0 0 18 219 22 81 1 223 806 201 174 224 0 221 225 226 14 18 648 225
 ?0 174 227 5 6 +0 0 0 174 22 81 1 225 807 201 18 228 0 223 229 230 15 227 649 0
 231 18 0 17 231 0 227 232 170 34 48 154 0 0 -17 232 0 227 30 231 11 23 10 0 0 -
17 170 0 227 231 30 46 150 148 0 0 -17 48 0 113 169 233 46 231 154 0 168 +17 233
 0 113 48 142 34 76 179 0 231 -17 168 0 166 150 153 46 169 171 0 170 +17 142 0 1
13 233 124 74 234 140 0 235 +17 76 0 236 129 23 74 233 179 0 142 +15 236 254 0 3
2 215 0 17 129 0 236 32 76 77 235 103 0 0 +17 23 0 236 76 32 34 232 10 0 233 +17
 32 0 236 23 129 11 28 120 0 232 -17 28 0 27 64 25 77 32 120 0 237 +16 120 592 0
 ?28 99 163 119 0 0 1 17 64 0 27 238 28 62 237 138 0 116 +17 237 0 220 235 239 7
7 64 138 0 129 -15 220 485 0 234 194 0 17 235 0 220 234 237 74 129 103 0 0 -17 2
39 0 220 237 234 62 70 133 0 0 -17 234 0 220 239 235 68 142 140 0 0 -17 70 0 210
 240 116 68 239 133 0 124 +17 240 0 210 132 70 71 124 110 0 241 -17 116 0 210 70
 132 62 238 114 0 239 +17 124 0 113 142 73 68 240 110 0 234 +17 73 0 113 124 61
 71 178 146 0 240 +17 178 0 222 177 241 59 73 146 0 0 -15 222 506 0 178 219 0 17
 177 0 222 67 178 57 137 135 0 0 -17 241 0 222 178 67 71 132 130 0 0 -17 67 0 22
2 241 177 65 145 143 0 132 -17 132 0 210 116 240 65 241 130 0 238 +17 238 0 27 1
45 64 65 116 114 0 0 -17 145 0 27 40 238 57 67 143 0 177 +14 215 251 229 ?176 10
8 236 5 242 -0 0 176 108 22 81 1 229 808 201 215 243 0 225 244 245 14 176 259 24
4 ?167 215 35 5 246 -0 0 167 215 22 50 242 275 0 215 246 207 0 +-.00714142842854
285 -.157 .01 1 0 0 0 0 -1 50 246 277 0 176 247 242 0 +.00714142842854285 -.157
 0 -1 0 0 0 0 1 50 207 3 0 112 242 200 0 +0 0 .01 0 0 1 1 0 0 50 247 280 0 167 1
95 246 0 +0 -.157 0 0 -1 0 0 0 -1 14 167 267 248 ?191 176 166 5 247 +0 0 191 176
 22 51 195 367 0 191 0 247 0 +0 -.15 .01 0 0 -1 .00611 -1 0 0 81 1 248 810 201 1
67 249 0 244 0 250 80 255 1 201 251 252 9000 1 1 1 1 1 1 1 1 0 FFFFTFTFFFFFFF1 8
1 1 249 762 253 167 0 248 254 255 256 81 1 244 809 201 176 254 0 229 248 257 82
 255 1 250 33423525 81 1 254 761 253 176 0 244 243 249 258 82 1 257 33030309 80
 1 253 0 259 8001 0 0 0 0 3 5 0 0 0 FFFFTFTFFFFFFF2 81 1 243 760 253 215 0 229 2
60 254 261 83 255 3 258 .792156862745098 .819607843137255 .933333333333333 81 1
 260 759 253 108 0 212 262 243 263 83 3 261 .792156862745098 .819607843137255 .9
33333333333333 81 1 212 803 201 108 260 0 209 218 264 81 1 262 758 253 95 0 203
 202 260 265 83 3 263 .792156862745098 .819607843137255 .933333333333333 81 1 20
3 800 201 95 262 0 199 206 266 81 1 202 757 253 161 0 199 267 262 268 83 3 265 .
792156862745098 .819607843137255 .933333333333333 81 1 267 756 253 112 0 206 211
 202 269 83 3 268 .792156862745098 .819607843137255 .933333333333333 81 1 206 80
1 201 112 267 0 203 209 270 81 1 211 755 253 16 0 209 0 267 271 83 3 269 .792156
862745098 .819607843137255 .933333333333333 83 3 271 .792156862745098 .819607843
137255 .933333333333333 82 1 270 32243877 82 1 266 -2010251157 81 1 218 804 201
 194 272 0 212 221 273 82 1 264 -2010513301 81 1 272 764 253 194 0 218 255 274 2
75 81 1 221 805 201 219 274 0 218 223 276 82 1 273 1250492579 81 1 274 765 253 2
19 0 221 272 224 277 82 1 276 1252458659 81 1 224 766 253 174 0 223 274 228 278
 83 3 277 .792156862745098 .819607843137255 .933333333333333 81 1 228 767 253 18
 0 225 224 0 279 83 3 278 .792156862745098 .819607843137255 .933333333333333 83
 3 279 .792156862745098 .819607843137255 .933333333333333 81 1 255 763 253 191 0
 193 249 272 280 83 3 275 .792156862745098 .819607843137255 .933333333333333 81
 1 193 798 201 191 255 0 0 199 281 83 3 280 .792156862745098 .819607843137255 .9
33333333333333 82 1 281 833355937 79 255 15 259 SDL/TYSA_COLOUR83 3 256 .7921568
62745098 .819607843137255 .933333333333333 79 14 252 SWEntUnchanged82 1 245 3289
9237 17 30 0 227 170 232 55 25 31 0 150 -82 1 230 1754005669 82 1 226 1752039589
 82 1 213 32440483 82 1 204 32047269 17 36 0 35 137 33 57 40 163 0 145 +17 82 0
 90 92 91 80 106 104 0 101 +19 17 89 0 1 0 9 5 S0 74 4 CI16 index_map_offset0 0
 1 dCCZ20 15 10 0 0 282 248 283 284 285 286 287 13 228 2 0 0 0 0 0 0 0 0 0 0 81
 5 282 29 288 1 0 283 0 0 289 0 0 0 0 81 2 283 312 290 1 282 284 0 0 0 291 81 2
 284 319 292 1 283 285 0 0 0 293 81 2 285 391 294 1 284 286 0 0 0 295 81 2 286 5
35 296 1 285 287 0 0 0 0 81 1 287 677 297 1 286 13 0 0 298 81 2 13 692 299 1 287
 2 0 0 300 0 80 2 299 301 302 8004 0 0 0 0 3 5 0 0 0 FFTFFFFFFFFFFF2 3 83 1 300
 1 79 16 302 SDL/TYSA_DENSITY80 1 297 303 304 9000 1 1 1 1 1 1 1 1 0 FFTFFFFFFFF
FFF1 82 1 298 401 79 10 304 BODY_MATCH80 2 296 305 306 9000 0 0 0 0 3 5 0 0 0 FF
TFFFFFFFFFFF9 1 79 16 306 BODY_RECIPE_200180 2 294 307 308 9000 0 0 0 0 3 5 0 0
 0 FFTFFFFFFFFFFF9 1 82 1 295 1 79 24 308 BODY_IN_LIGHTWEIGHT_PERM80 2 292 309 3
10 9000 0 0 0 0 3 5 0 0 0 FFTFFFFFFFFFFF9 1 82 1 293 132 79 30 310 LAST_BODY_MOD
IFYING_FEATURE_ID80 2 290 311 312 9000 0 0 0 0 3 5 0 0 0 FFTFFFFFFFFFFT9 1 82 1
 291 149 79 19 312 ENT_TIME_STAMP_200180 5 288 313 314 9000 0 0 0 0 3 6 0 0 0 FF
TTTTTTFTTFTT2 2 2 2 2 83 1 289 1 79 19 314 BODY_SCALING_FACTOR80 2 12 315 316 90
00 0 0 0 0 3 5 0 0 0 FFTFFFFFFFFFFF9 1 82 1 14 107 79 12 316 ATOM_ID_20011 0 
