**ABCDEFGHIJKLMNOPQRSTUVWXYZabcdefghijklmnopqrstuvwxyz**************************
**PARASOLID !"#$%&'()*+,-./:;<=>?@[\]^_`{|}~0123456789**************************
**PART1;
MC=AMD64;
MC_MODEL=Intel64 Family 6 Model 142 Stepping 12, GenuineIntel;
MC_ID=unknown;
OS=Windows_NT;
OS_RELEASE=unknown;
FRU=Parasolid Version 32.1, build 255,  1- 1-2021;
APPL=SOLIDWORKS 2021-2021166;
SITE=;
USER=unknown;
FORMAT=text;
GUISE=transmit;
KEY=pendulum_arm_182_mm;
FILE=pendulum_arm_182_mm.x_t;
DATE=Mon Nov  8 15:16:23 2021;
**PART2;
SCH=SCH_3201255_32001;
USFLD_SIZE=0;
**PART3;
**END_OF_HEADER*****************************************************************
T51 : TRANSMIT FILE created by modeller version 320125523 SCH_3201255_32001_1300
6229 0 12 34 CCCCCCI4 mesh1006 0 I8 polyline1008 0 CCCCCCCDI5 owner1040 0 CCCCCC
I13 boundary_mesh1006 0 I17 boundary_polyline1008 0 CCCA16 index_map_offset0 0 1
 dA9 index_map82 0 A17 node_id_index_map82 0 A20 schema_embedding_map82 0 A5 chi
ld12 0 A14 lowest_node_id0 0 1 dA16 mesh_offset_data206 0 Z1 797 2 3 0 0 0 0 0 0
 1e3 1e-8 0 4 0 1 0 1 1 5 6 7 8 0 0 9 10 11 0 0 0 0 0 0 0 81 255 2 2 784 12 1 13
 0 0 0 0 14 70 11 CI9 list_type0 0 1 uI10 notransmit0 0 1 lCCCDCCDI12 finger_ind
ex0 0 1 dI12 finger_block1012 0 CZ3 0 4 T1 0 0 10 20 1 15 15 13 255 5 88 0 1 0 1
6 0 0 17 0 51 255 6 660 0 18 19 0 0 +.00514142842854285 -.18 0 0 0 -1 .002 -1 0
 0 30 255 7 610 0 10 20 0 0 -.00714142842854285 -.18 0 0 0 1 29 255 8 593 0 11 2
1 0 .00714142842854285 -.18 .01 19 8 CCCCCCCA5 owner12 0 Z9 30 0 1 17 0 22 V0 16
 255 10 608 0 ?23 0 24 7 0 0 1 18 255 11 591 0 25 0 26 8 ?1 17 255 25 0 27 28 29
 11 30 31 0 32 +18 26 582 0 33 11 34 21 ?1 17 33 0 35 36 37 26 38 39 0 40 +18 34
 565 0 41 26 42 43 ?1 29 21 584 0 26 43 8 -.00714142842854285 -.18 .01 29 43 567
 0 34 44 21 -.00714142842854285 -.18 0 29 44 564 0 42 45 43 .00714142842854285 -
.18 0 18 42 562 0 23 34 46 44 ?1 29 45 549 0 46 47 44 -.00514142842854285 -.182
 .01 18 46 547 0 48 42 49 45 ?1 29 47 546 0 49 50 45 .00514142842854285 -.182 .0
1 18 49 544 0 30 46 51 47 ?1 29 50 543 0 51 52 47 .00514142842854285 -.182 0 18
 51 541 0 53 49 54 50 ?1 29 52 540 0 54 55 50 -.00514142842854285 -.182 0 18 54
 538 0 56 51 57 52 ?1 29 55 436 0 57 58 52 .00714142842854285 -.0103039522237412
8 0 18 57 434 0 59 54 60 55 ?1 29 58 433 0 60 61 55 .00714142842854285 -.0103039
5222374128 .01 18 60 431 0 28 57 62 58 ?1 29 61 418 0 62 63 58 -.008570714214271
43 -.00515197611187064 0 18 62 416 0 64 60 65 61 ?1 29 63 415 0 65 66 61 .008570
71421427143 -.00515197611187064 0 18 65 413 0 67 62 68 63 ?1 29 66 412 0 68 69 6
3 -.00857071421427143 -.00515197611187064 .01 18 68 410 0 70 65 71 66 ?1 29 69 4
09 0 71 72 66 .00857071421427143 -.00515197611187064 .01 18 71 407 0 73 68 74 69
 ?1 29 72 400 0 74 75 69 -.00714142842854285 -.01030395222374128 .01 18 74 398 0
 36 71 76 72 ?1 29 75 397 0 76 77 72 -.00714142842854285 -.01030395222374128 0 1
8 76 395 0 78 74 79 75 ?1 29 77 71 0 80 81 75 .00166664333317 .00272 0 18 80 65
 0 82 83 84 77 ?1 29 81 72 0 84 85 77 -.00166664333317 .00272 0 18 84 66 0 86 80
 0 81 ?1 29 85 27 0 79 87 81 .00166664333317 .00272 .01 18 79 25 0 88 76 83 85 ?
1 29 87 24 0 83 0 85 -.00166664333317 .00272 .01 18 83 22 0 89 79 80 87 ?1 17 89
 0 90 91 92 83 86 93 0 94 -15 255 90 81 0 92 95 0 17 91 0 90 82 89 79 96 97 0 0
 +17 92 0 90 89 82 84 98 99 0 0 -17 86 0 100 101 94 84 89 93 0 102 +16 93 74 0 ?
86 103 104 105 0 0 1 17 94 0 100 86 106 83 88 107 0 96 -15 100 79 0 101 108 0 17
 106 0 100 94 101 79 82 104 0 91 -17 88 0 109 96 96 79 94 107 0 106 +16 107 12 0
 ?88 110 97 111 0 0 1 17 96 0 109 88 88 83 91 97 0 0 -15 109 5 0 96 112 27 16 97
 7 0 ?91 107 113 114 0 0 1 16 113 414 0 ?115 97 116 117 0 0 1 31 255 114 9 0 97
 118 111 0 +0 0 .01 0 0 1 1 0 0 .00319 30 118 281 0 119 120 114 0 +-.00714142842
854285 -.182 0 0 1 0 30 111 14 0 107 114 121 0 +0 .00272 .01 1 0 0 31 121 19 0 1
10 111 122 0 +0 0 .01 0 0 1 1 0 0 .01 16 110 408 0 ?123 104 107 121 0 0 1 31 122
 70 0 99 121 124 0 +0 0 0 0 0 1 1 0 0 .00319 16 99 60 0 ?98 116 119 122 0 0 1 30
 124 69 0 116 122 117 0 +0 .00272 0 1 0 0 16 116 55 0 ?101 113 99 124 0 0 1 31 1
17 68 0 113 124 125 0 +0 0 0 0 0 1 1 0 0 .01 30 125 86 0 104 117 105 0 +.0016666
4333317 .00272 .01 0 0 -1 16 104 73 0 ?82 93 110 125 0 0 1 30 105 87 0 93 125 12
6 0 +-.00166664333317 .00272 .01 0 0 -1 30 126 403 0 103 105 127 0 --.0071414284
2854285 -.0103039522237413 0 0 0 1 16 103 401 0 ?128 129 93 126 0 0 1 30 127 421
 0 129 126 130 0 +.00857071421427143 -.00515197611187065 .01 0 0 -1 16 129 419 0
 ?131 132 103 127 0 0 1 30 130 427 0 132 127 133 0 --.00857071421427143 -.005151
97611187065 .01 0 0 -1 16 132 425 0 ?70 134 129 130 0 0 1 30 133 439 0 134 130 1
35 0 +.00714142842854285 -.0103039522237413 .01 0 0 1 16 134 437 0 ?136 137 132
 133 0 0 1 31 135 467 0 137 133 138 0 +-.01714142842854285 -.0103039522237413 0
 0 0 1 1 0 0 .01 16 137 443 0 ?64 139 134 135 0 0 1 31 138 468 0 139 135 140 0 -
-.01714142842854285 -.0103039522237413 .01 0 0 1 1 0 0 .01 16 139 449 0 ?141 142
 137 138 0 0 1 31 140 469 0 142 138 143 0 +.01714142842854285 -.0103039522237413
 0 0 0 1 1 0 0 .01 16 142 455 0 ?144 145 139 140 0 0 1 31 143 470 0 145 140 146
 0 -.01714142842854285 -.0103039522237413 .01 0 0 1 1 0 0 .01 16 145 461 0 ?73 1
47 142 143 0 0 1 30 146 552 0 147 143 148 0 +.00514142842854285 -.182 .01 0 0 1
 16 147 550 0 ?149 150 145 146 0 0 1 30 148 558 0 150 146 151 0 +-.0051414284285
4285 -.182 0 0 0 -1 16 150 556 0 ?152 153 147 148 0 0 1 31 151 570 0 153 148 154
 0 -.00514142842854285 -.18 0 0 0 1 1 0 0 .002 16 153 568 0 ?53 155 150 151 0 0
 1 31 154 577 0 155 151 156 0 --.00514142842854285 -.18 0 0 0 1 1 0 0 .002 16 15
5 575 0 ?41 39 153 154 0 0 1 30 156 587 0 39 154 157 0 --.00714142842854285 -.18
 .01 0 0 -1 16 39 585 0 ?33 31 155 156 0 0 1 31 157 596 0 31 156 20 0 +.00514142
842854285 -.18 .01 0 0 1 1 0 0 .002 16 31 594 0 ?25 24 39 157 0 0 1 31 20 603 0
 24 157 7 0 +-.00514142842854285 -.18 .01 0 0 1 1 0 0 .002 16 24 601 0 ?48 10 31
 20 0 0 1 17 48 0 27 29 40 46 158 24 0 159 +15 27 6 0 40 112 0 17 29 0 27 25 48
 49 159 160 0 0 -17 40 0 27 48 141 26 36 161 0 158 -17 158 0 162 38 163 26 48 24
 0 0 -17 159 0 164 152 149 46 29 160 0 163 +15 164 269 0 159 165 0 17 152 0 164
 166 159 54 163 150 0 167 +17 149 0 164 159 166 49 168 147 0 29 +16 160 545 0 ?1
59 161 169 170 0 0 1 17 163 0 162 158 56 46 152 150 0 0 -15 162 628 0 158 171 0
 17 56 0 162 163 38 54 41 155 0 152 -17 38 0 162 56 158 34 33 39 0 0 -17 41 0 17
2 78 167 34 56 155 0 37 +15 172 129 0 167 173 0 17 78 0 172 64 41 76 37 119 0 17
4 +17 167 0 172 41 53 54 166 169 0 0 -17 37 0 35 33 128 34 78 119 0 38 -15 35 25
4 0 37 175 0 17 128 0 35 37 36 76 176 103 0 0 +16 119 566 0 ?78 99 177 118 0 0 1
 16 177 563 0 ?59 119 178 120 0 0 1 17 59 0 179 136 23 57 180 177 0 144 +16 178
 592 0 ?28 177 161 181 0 0 1 30 120 282 0 177 181 118 0 +.00714142842854285 -.18
2 0 0 1 0 30 181 283 0 178 182 120 0 +.00714142842854285 -.182 .01 0 1 0 30 182
 284 0 161 170 181 0 +-.00714142842854285 -.182 .01 0 1 0 16 161 583 0 ?36 178 1
60 182 0 0 1 30 170 289 0 160 183 182 0 +.00714142842854285 -.182 .01 -1 0 0 30
 183 291 0 169 184 170 0 +-.00714142842854285 -.182 0 1 0 0 16 169 539 0 ?166 16
0 185 183 0 0 1 31 184 370 0 186 187 183 0 +0 -.175 0 0 0 -1 -1 0 0 .00611 16 18
6 351 0 ?188 185 0 184 0 0 1 31 187 371 0 185 0 184 0 +0 -.175 .01 0 0 -1 -1 0 0
 .00611 16 185 348 0 ?189 169 186 187 0 0 1 17 189 0 190 189 189 0 191 185 0 0 +
15 190 342 0 189 112 109 17 191 0 192 191 191 0 189 185 0 0 -15 192 357 0 191 19
3 194 14 255 193 354 195 ?196 165 192 5 197 -0 0 196 165 22 15 194 358 0 188 193
 0 17 188 0 194 188 188 0 198 186 0 0 +17 198 0 199 198 198 0 188 186 0 0 -15 19
9 334 0 198 173 200 14 173 131 201 ?95 112 199 5 202 -0 0 95 112 22 15 200 48 0
 98 173 172 17 98 0 200 102 102 80 92 99 0 0 +17 102 0 200 98 98 84 101 116 0 92
 -17 101 0 100 106 86 80 102 116 0 98 +81 1 201 786 203 173 204 0 195 205 206 14
 95 82 205 ?108 173 90 5 207 +0 0 108 173 22 14 112 141 208 ?173 16 190 5 209 +0
 0 173 16 22 50 255 202 67 0 173 209 210 0 +0 0 0 0 0 1 1 0 0 13 22 31 0 0 0 0 0
 0 9 16 14 16 148 211 ?112 0 212 5 210 -0 0 112 0 22 81 1 211 789 203 16 213 0 2
08 214 215 15 212 146 0 115 16 0 51 210 83 0 16 202 216 0 -0 0 .01 0 0 -1 .01 -1
 0 0 50 216 84 0 108 210 207 0 +0 .00272 .01 0 1 0 0 0 1 14 108 80 214 ?175 95 1
00 5 216 -0 0 175 95 22 51 207 85 0 95 216 217 0 -0 0 .01 0 0 -1 .00319 -1 0 0 5
1 217 496 0 196 207 218 0 +-.01714142842854285 -.0103039522237413 .01 0 0 -1 .01
 -1 0 0 14 196 484 219 ?220 193 221 5 217 -0 0 220 193 22 51 218 517 0 220 217 1
9 0 +.01714142842854285 -.0103039522237413 .01 0 0 -1 .01 -1 0 0 14 220 505 222
 ?171 196 223 5 218 -0 0 171 196 22 51 19 639 0 171 218 6 0 +-.00514142842854285
 -.18 0 0 0 1 .002 1 0 0 14 171 627 224 ?18 220 162 5 19 +0 0 18 220 22 81 1 224
 793 203 171 225 0 222 226 227 14 18 648 226 ?0 171 228 5 6 +0 0 0 171 22 81 1 2
26 794 203 18 229 0 224 230 231 15 228 649 0 232 18 0 17 232 0 228 233 168 42 53
 153 0 0 -17 233 0 228 30 232 11 23 10 0 0 -17 168 0 228 232 30 51 149 147 0 0 -
17 53 0 172 167 180 51 232 153 0 166 +17 180 0 172 53 144 42 59 177 0 232 -17 16
6 0 164 149 152 51 167 169 0 168 +17 144 0 172 180 234 57 67 142 0 235 +17 234 0
 172 144 64 65 115 113 0 0 -17 67 0 223 236 235 65 144 142 0 131 -17 235 0 223 6
7 237 57 136 134 0 0 -15 223 506 0 237 220 0 17 237 0 223 235 236 60 73 145 0 0
 -17 136 0 179 32 59 60 235 134 0 237 +15 179 262 0 32 238 0 17 32 0 179 23 136
 11 28 178 0 233 -17 23 0 179 59 32 42 233 10 0 180 +17 28 0 27 73 25 60 32 178
 0 136 +17 73 0 27 123 28 71 237 145 0 239 +17 123 0 27 141 73 68 239 110 0 240
 +17 239 0 212 131 70 71 123 110 0 236 -17 131 0 212 115 239 65 236 129 0 234 +1
7 70 0 212 239 115 68 241 132 0 123 +17 236 0 223 237 67 71 131 129 0 0 -17 115
 0 212 70 131 62 234 113 0 241 +17 241 0 221 174 240 62 70 132 0 0 -15 221 485 0
 240 196 0 17 174 0 221 176 241 76 64 137 0 128 -17 240 0 221 241 176 68 141 139
 0 0 -17 176 0 221 240 174 74 128 103 0 0 -17 141 0 27 40 123 74 240 139 0 176 +
17 64 0 172 234 78 62 174 137 0 115 +14 238 259 230 ?165 175 179 5 242 -0 0 165
 175 22 81 1 230 795 203 238 243 0 226 244 245 14 165 267 244 ?193 238 164 5 246
 +0 0 193 238 22 14 175 251 247 ?238 108 35 5 248 -0 0 238 108 22 50 242 277 0 2
38 246 248 0 +.00714142842854285 -.182 0 -1 0 0 0 0 1 50 246 280 0 165 197 242 0
 +0 -.182 0 0 -1 0 0 0 -1 50 248 275 0 175 242 209 0 +-.00714142842854285 -.182
 .01 1 0 0 0 0 -1 50 209 3 0 112 248 202 0 +0 0 .01 0 0 1 1 0 0 51 197 367 0 193
 0 246 0 +0 -.175 .01 0 0 -1 .00611 -1 0 0 81 1 247 797 203 175 249 0 244 0 250
 80 255 1 203 251 252 9000 1 1 1 1 1 1 1 1 0 FFFFTFTFFFFFFF1 81 1 249 747 253 17
5 0 247 254 243 255 81 1 244 796 203 165 256 0 230 247 257 82 255 1 250 -1976958
811 81 1 256 749 253 165 0 244 243 258 259 82 1 257 -1976434523 80 1 253 0 260 8
001 0 0 0 0 3 5 0 0 0 FFFFTFTFFFFFFF2 81 1 243 748 253 238 0 230 249 256 261 81
 1 258 750 253 193 0 195 256 262 263 83 255 3 259 .792156862745098 .819607843137
255 .933333333333333 81 1 195 785 203 193 258 0 0 201 264 81 1 262 751 253 196 0
 219 258 265 266 83 3 263 .792156862745098 .819607843137255 .933333333333333 81
 1 219 791 203 196 262 0 214 222 267 81 1 265 752 253 220 0 222 262 225 268 83 3
 266 .792156862745098 .819607843137255 .933333333333333 81 1 222 792 203 220 265
 0 219 224 269 81 1 225 753 253 171 0 224 265 229 270 83 3 268 .792156862745098
 .819607843137255 .933333333333333 81 1 229 754 253 18 0 226 225 0 271 83 3 270
 .792156862745098 .819607843137255 .933333333333333 83 3 271 .792156862745098 .8
19607843137255 .933333333333333 82 1 269 -1441267549 81 1 214 790 203 108 254 0
 211 219 272 82 1 267 -1443233629 81 1 254 746 253 108 0 214 273 249 274 82 1 27
2 -2010513301 81 1 273 745 253 95 0 205 204 254 275 83 3 274 .792156862745098 .8
19607843137255 .933333333333333 81 1 205 787 203 95 273 0 201 208 276 81 1 204 7
44 253 173 0 201 277 273 278 83 3 275 .792156862745098 .819607843137255 .9333333
33333333 81 1 277 743 253 112 0 208 213 204 279 83 3 278 .792156862745098 .81960
7843137255 .933333333333333 81 1 208 788 203 112 277 0 205 211 280 81 1 213 742
 253 16 0 211 0 277 281 83 3 279 .792156862745098 .819607843137255 .933333333333
333 83 3 281 .792156862745098 .819607843137255 .933333333333333 82 1 280 -197761
4171 82 1 276 -2010251157 82 1 264 -1463418719 83 3 261 .792156862745098 .819607
843137255 .933333333333333 79 255 15 260 SDL/TYSA_COLOUR83 3 255 .79215686274509
8 .819607843137255 .933333333333333 79 14 252 SWEntUnchanged82 1 245 -1976827739
 17 30 0 228 168 233 49 25 31 0 149 -82 1 231 -1140850523 82 1 227 -1142816603 8
2 1 215 -1977417565 82 1 206 -1977810779 17 36 0 35 128 33 74 40 161 0 141 +17 8
2 0 90 92 91 80 106 104 0 101 +19 17 89 0 1 0 9 5 S0 74 4 CI16 index_map_offset0
 0 1 dCCZ20 15 10 0 0 282 247 283 284 285 286 287 13 229 2 0 0 0 0 0 0 0 0 0 0 8
1 5 282 29 288 1 0 283 0 0 289 0 0 0 0 81 2 283 312 290 1 282 284 0 0 0 291 81 2
 284 319 292 1 283 285 0 0 0 293 81 2 285 391 294 1 284 286 0 0 0 295 81 2 286 5
35 296 1 285 287 0 0 0 0 81 1 287 677 297 1 286 13 0 0 298 81 2 13 692 299 1 287
 2 0 0 300 0 80 2 299 301 302 8004 0 0 0 0 3 5 0 0 0 FFTFFFFFFFFFFF2 3 83 1 300
 1 79 16 302 SDL/TYSA_DENSITY80 1 297 303 304 9000 1 1 1 1 1 1 1 1 0 FFTFFFFFFFF
FFF1 82 1 298 35269 79 10 304 BODY_MATCH80 2 296 305 306 9000 0 0 0 0 3 5 0 0 0
 FFTFFFFFFFFFFF9 1 79 16 306 BODY_RECIPE_200180 2 294 307 308 9000 0 0 0 0 3 5 0
 0 0 FFTFFFFFFFFFFF9 1 82 1 295 1 79 24 308 BODY_IN_LIGHTWEIGHT_PERM80 2 292 309
 310 9000 0 0 0 0 3 5 0 0 0 FFTFFFFFFFFFFF9 1 82 1 293 132 79 30 310 LAST_BODY_M
ODIFYING_FEATURE_ID80 2 290 311 312 9000 0 0 0 0 3 5 0 0 0 FFTFFFFFFFFFFT9 1 82
 1 291 149 79 19 312 ENT_TIME_STAMP_200180 5 288 313 314 9000 0 0 0 0 3 6 0 0 0
 FFTTTTTTFTTFTT2 2 2 2 2 83 1 289 1 79 19 314 BODY_SCALING_FACTOR80 2 12 315 316
 9000 0 0 0 0 3 5 0 0 0 FFTFFFFFFFFFFF9 1 82 1 14 107 79 12 316 ATOM_ID_20011 0
 
