**ABCDEFGHIJKLMNOPQRSTUVWXYZabcdefghijklmnopqrstuvwxyz**************************
**PARASOLID !"#$%&'()*+,-./:;<=>?@[\]^_`{|}~0123456789**************************
**PART1;
MC=AMD64;
MC_MODEL=Intel64 Family 6 Model 142 Stepping 12, GenuineIntel;
MC_ID=unknown;
OS=Windows_NT;
OS_RELEASE=unknown;
FRU=Parasolid Version 32.1, build 255,  1- 1-2021;
APPL=SOLIDWORKS 2021-2021166;
SITE=;
USER=unknown;
FORMAT=text;
GUISE=transmit;
KEY=pendulum_arm_207_mm;
FILE=pendulum_arm_207_mm.x_t;
DATE=Mon Nov  8 15:17:32 2021;
**PART2;
SCH=SCH_3201255_32001;
USFLD_SIZE=0;
**PART3;
**END_OF_HEADER*****************************************************************
T51 : TRANSMIT FILE created by modeller version 320125523 SCH_3201255_32001_1300
6229 0 12 34 CCCCCCI4 mesh1006 0 I8 polyline1008 0 CCCCCCCDI5 owner1040 0 CCCCCC
I13 boundary_mesh1006 0 I17 boundary_polyline1008 0 CCCA16 index_map_offset0 0 1
 dA9 index_map82 0 A17 node_id_index_map82 0 A20 schema_embedding_map82 0 A5 chi
ld12 0 A14 lowest_node_id0 0 1 dA16 mesh_offset_data206 0 Z1 811 2 3 0 0 0 0 0 0
 1e3 1e-8 0 4 0 1 0 1 1 5 6 7 8 0 0 9 10 11 0 0 0 0 0 0 0 81 255 2 2 798 12 1 13
 0 0 0 0 14 70 11 CI9 list_type0 0 1 uI10 notransmit0 0 1 lCCCDCCDI12 finger_ind
ex0 0 1 dI12 finger_block1012 0 CZ3 0 4 T1 0 0 10 20 1 15 15 13 255 5 88 0 1 0 1
6 0 0 17 0 51 255 6 661 0 18 19 0 0 +-.00514142842854285 -.205 0 0 0 1 .002 1 0
 0 30 255 7 611 0 10 20 0 0 --.00714142842854285 -.205 .01 0 0 -1 29 255 8 594 0
 11 21 0 -.00714142842854285 -.205 0 19 8 CCCCCCCA5 owner12 0 Z9 30 0 1 17 0 22
 V0 16 255 10 609 0 ?23 0 24 7 0 0 1 18 255 11 592 0 25 0 26 8 ?1 17 255 25 0 27
 28 29 11 30 31 0 32 +18 26 583 0 33 11 34 21 ?1 17 33 0 35 36 37 26 38 39 0 40
 +18 34 566 0 23 26 41 42 ?1 29 21 585 0 26 42 8 .00714142842854285 -.205 0 29 4
2 568 0 34 43 21 -.00714142842854285 -.205 .01 29 43 565 0 41 44 42 .00714142842
854285 -.205 .01 18 41 563 0 45 34 46 43 ?1 29 44 550 0 46 47 43 -.0051414284285
4285 -.207 .01 18 46 548 0 48 41 49 44 ?1 29 47 547 0 49 50 44 .0051414284285428
5 -.207 .01 18 49 545 0 51 46 52 47 ?1 29 50 544 0 52 53 47 .00514142842854285 -
.207 0 18 52 542 0 54 49 55 50 ?1 29 53 541 0 55 56 50 -.00514142842854285 -.207
 0 18 55 539 0 30 52 57 53 ?1 29 56 437 0 57 58 53 .00714142842854285 -.01030395
222374128 0 18 57 435 0 36 55 59 56 ?1 29 58 434 0 59 60 56 .00714142842854285 -
.01030395222374128 .01 18 59 432 0 61 57 62 58 ?1 29 60 419 0 62 63 58 -.0085707
1421427143 -.00515197611187064 0 18 62 417 0 64 59 65 60 ?1 29 63 416 0 65 66 60
 .00857071421427143 -.00515197611187064 0 18 65 414 0 67 62 68 63 ?1 29 66 413 0
 68 69 63 -.00857071421427143 -.00515197611187064 .01 18 68 411 0 70 65 71 66 ?1
 29 69 410 0 71 72 66 .00857071421427143 -.00515197611187064 .01 18 71 408 0 73
 68 74 69 ?1 29 72 401 0 74 75 69 -.00714142842854285 -.01030395222374128 .01 18
 74 399 0 76 71 77 72 ?1 29 75 398 0 77 78 72 -.00714142842854285 -.010303952223
74128 0 18 77 396 0 28 74 79 75 ?1 29 78 71 0 80 81 75 .00166664333317 .00272 0
 18 80 65 0 82 83 84 78 ?1 29 81 72 0 84 85 78 -.00166664333317 .00272 0 18 84 6
6 0 86 80 0 81 ?1 29 85 27 0 79 87 81 .00166664333317 .00272 .01 18 79 25 0 88 7
7 83 85 ?1 29 87 24 0 83 0 85 -.00166664333317 .00272 .01 18 83 22 0 89 79 80 87
 ?1 17 89 0 90 91 92 83 86 93 0 94 -15 255 90 81 0 92 95 0 17 91 0 90 82 89 79 9
6 97 0 0 +17 92 0 90 89 82 84 98 99 0 0 -17 86 0 100 101 94 84 89 93 0 102 +16 9
3 74 0 ?86 103 104 105 0 0 1 17 94 0 100 86 106 83 88 107 0 96 -15 100 79 0 101
 108 0 17 106 0 100 94 101 79 82 104 0 91 -17 88 0 109 96 96 79 94 107 0 106 +16
 107 12 0 ?88 110 97 111 0 0 1 17 96 0 109 88 88 83 91 97 0 0 -15 109 5 0 96 112
 113 16 97 7 0 ?91 107 114 115 0 0 1 16 114 415 0 ?116 97 117 118 0 0 1 31 255 1
15 9 0 97 119 111 0 +0 0 .01 0 0 1 1 0 0 .00319 30 119 281 0 120 121 115 0 +-.00
714142842854285 -.207 0 0 1 0 30 111 14 0 107 115 122 0 +0 .00272 .01 1 0 0 31 1
22 19 0 110 111 123 0 +0 0 .01 0 0 1 1 0 0 .01 16 110 409 0 ?124 104 107 122 0 0
 1 31 123 70 0 99 122 125 0 +0 0 0 0 0 1 1 0 0 .00319 16 99 60 0 ?98 117 120 123
 0 0 1 30 125 69 0 117 123 118 0 +0 .00272 0 1 0 0 16 117 55 0 ?101 114 99 125 0
 0 1 31 118 68 0 114 125 126 0 +0 0 0 0 0 1 1 0 0 .01 30 126 86 0 104 118 105 0
 +.00166664333317 .00272 .01 0 0 -1 16 104 73 0 ?82 93 110 126 0 0 1 30 105 87 0
 93 126 127 0 +-.00166664333317 .00272 .01 0 0 -1 30 127 404 0 103 105 128 0 --.
00714142842854285 -.0103039522237413 0 0 0 1 16 103 402 0 ?129 130 93 127 0 0 1
 30 128 422 0 130 127 131 0 +.00857071421427143 -.00515197611187065 .01 0 0 -1 1
6 130 420 0 ?132 133 103 128 0 0 1 30 131 428 0 133 128 134 0 --.008570714214271
43 -.00515197611187065 .01 0 0 -1 16 133 426 0 ?70 135 130 131 0 0 1 30 134 440
 0 135 131 136 0 +.00714142842854285 -.0103039522237413 .01 0 0 1 16 135 438 0 ?
137 138 133 134 0 0 1 31 136 468 0 138 134 139 0 +-.01714142842854285 -.01030395
22237413 0 0 0 1 1 0 0 .01 16 138 444 0 ?64 140 135 136 0 0 1 31 139 469 0 140 1
36 141 0 --.01714142842854285 -.0103039522237413 .01 0 0 1 1 0 0 .01 16 140 450
 0 ?142 143 138 139 0 0 1 31 141 470 0 143 139 144 0 +.01714142842854285 -.01030
39522237413 0 0 0 1 1 0 0 .01 16 143 456 0 ?145 146 140 141 0 0 1 31 144 471 0 1
46 141 147 0 -.01714142842854285 -.0103039522237413 .01 0 0 1 1 0 0 .01 16 146 4
62 0 ?73 148 143 144 0 0 1 30 147 553 0 148 144 149 0 +-.00514142842854285 -.207
 0 0 0 -1 16 148 551 0 ?150 151 146 147 0 0 1 30 149 559 0 151 147 152 0 +.00514
142842854285 -.207 .01 0 0 1 16 151 557 0 ?153 154 148 149 0 0 1 31 152 571 0 15
4 149 155 0 +-.00514142842854285 -.205 .01 0 0 1 1 0 0 .002 16 154 569 0 ?48 156
 151 152 0 0 1 31 155 578 0 156 152 157 0 +.00514142842854285 -.205 .01 0 0 1 1
 0 0 .002 16 156 576 0 ?45 39 154 155 0 0 1 30 157 588 0 39 155 158 0 -.00714142
842854285 -.205 0 0 0 1 16 39 586 0 ?33 31 156 157 0 0 1 31 158 597 0 31 157 20
 0 --.00514142842854285 -.205 0 0 0 1 1 0 0 .002 16 31 595 0 ?25 24 39 158 0 0 1
 31 20 604 0 24 158 7 0 -.00514142842854285 -.205 0 0 0 1 1 0 0 .002 16 24 602 0
 ?54 10 31 20 0 0 1 17 54 0 27 29 40 52 159 24 0 160 +15 27 129 0 40 161 0 17 29
 0 27 25 54 55 160 162 0 0 -17 40 0 27 54 145 26 36 163 0 159 -17 159 0 164 38 1
65 26 54 24 0 0 -17 160 0 166 153 150 52 29 162 0 165 +15 166 269 0 160 167 0 17
 153 0 166 168 160 49 165 151 0 169 +17 150 0 166 160 168 55 170 148 0 29 +16 16
2 540 0 ?160 171 172 173 0 0 1 17 165 0 164 159 51 52 153 151 0 0 -15 164 629 0
 159 174 0 17 51 0 164 165 38 49 45 156 0 153 -17 38 0 164 51 159 41 33 39 0 0 -
17 45 0 113 61 169 41 51 156 0 37 +15 113 6 0 169 112 0 17 61 0 113 73 45 59 37
 175 0 137 +17 169 0 113 45 48 49 168 171 0 0 -17 37 0 35 33 137 41 61 175 0 38
 -15 35 262 0 37 176 0 17 137 0 35 37 36 59 177 135 0 178 +16 175 564 0 ?61 163
 179 180 0 0 1 16 163 584 0 ?36 120 175 121 0 0 1 16 179 567 0 ?76 175 171 181 0
 0 1 30 180 283 0 175 181 121 0 +.00714142842854285 -.207 .01 0 1 0 30 181 284 0
 179 182 180 0 +-.00714142842854285 -.207 .01 0 1 0 30 121 282 0 163 180 119 0 +
.00714142842854285 -.207 0 0 1 0 30 182 289 0 171 173 181 0 +.00714142842854285
 -.207 .01 -1 0 0 16 171 546 0 ?168 179 162 182 0 0 1 30 173 291 0 162 183 182 0
 +-.00714142842854285 -.207 0 1 0 0 31 183 371 0 184 185 173 0 +0 -.2 0 0 0 -1 -
1 0 0 .00611 16 184 352 0 ?186 172 0 183 0 0 1 31 185 372 0 172 0 183 0 +0 -.2 .
01 0 0 -1 -1 0 0 .00611 16 172 349 0 ?187 162 184 185 0 0 1 17 187 0 188 187 187
 0 189 172 0 0 +15 188 343 0 187 112 109 17 189 0 190 189 189 0 187 172 0 0 -15
 190 358 0 189 191 192 14 255 191 355 193 ?194 167 190 5 195 -0 0 194 167 22 15
 192 359 0 186 191 0 17 186 0 192 186 186 0 196 184 0 0 +17 196 0 197 196 196 0
 186 184 0 0 -15 197 335 0 196 161 198 14 161 131 199 ?95 112 197 5 200 -0 0 95
 112 22 15 198 48 0 98 161 27 17 98 0 198 102 102 80 92 99 0 0 +17 102 0 198 98
 98 84 101 117 0 92 -17 101 0 100 106 86 80 102 117 0 98 +81 1 199 800 201 161 2
02 0 193 203 204 14 95 82 203 ?108 161 90 5 205 +0 0 108 161 22 14 112 141 206 ?
161 16 188 5 207 +0 0 161 16 22 50 255 200 67 0 161 207 208 0 +0 0 0 0 0 1 1 0 0
 13 22 31 0 0 0 0 0 0 9 16 14 16 148 209 ?112 0 210 5 208 -0 0 112 0 22 81 1 209
 803 201 16 211 0 206 212 213 15 210 146 0 116 16 0 51 208 83 0 16 200 214 0 -0
 0 .01 0 0 -1 .01 -1 0 0 50 214 84 0 108 208 205 0 +0 .00272 .01 0 1 0 0 0 1 14
 108 80 212 ?215 95 100 5 214 -0 0 215 95 22 51 205 85 0 95 214 216 0 -0 0 .01 0
 0 -1 .00319 -1 0 0 51 216 497 0 194 205 217 0 +-.01714142842854285 -.0103039522
237413 .01 0 0 -1 .01 -1 0 0 14 194 485 218 ?219 191 220 5 216 -0 0 219 191 22 5
1 217 518 0 219 216 19 0 +.01714142842854285 -.0103039522237413 .01 0 0 -1 .01 -
1 0 0 14 219 506 221 ?174 194 222 5 217 -0 0 174 194 22 51 19 640 0 174 217 6 0
 +.00514142842854285 -.205 0 0 0 -1 .002 -1 0 0 14 174 628 223 ?18 219 164 5 19
 +0 0 18 219 22 81 1 223 807 201 174 224 0 221 225 226 14 18 649 225 ?0 174 227
 5 6 +0 0 0 174 22 81 1 225 808 201 18 228 0 223 229 230 15 227 650 0 231 18 0 1
7 231 0 227 232 170 34 48 154 0 0 -17 232 0 227 30 231 11 23 10 0 0 -17 170 0 22
7 231 30 46 150 148 0 0 -17 48 0 113 169 233 46 231 154 0 168 +17 233 0 113 48 1
42 34 76 179 0 231 -17 168 0 166 150 153 46 169 171 0 170 +17 142 0 113 233 124
 74 234 140 0 235 +17 76 0 236 129 23 74 233 179 0 142 +15 236 254 0 32 215 0 17
 129 0 236 32 76 77 235 103 0 0 +17 23 0 236 76 32 34 232 10 0 233 +17 32 0 236
 23 129 11 28 120 0 232 -17 28 0 27 64 25 77 32 120 0 237 +16 120 593 0 ?28 99 1
63 119 0 0 1 17 64 0 27 238 28 62 237 138 0 116 +17 237 0 220 235 239 77 64 138
 0 129 -15 220 486 0 234 194 0 17 235 0 220 234 237 74 129 103 0 0 -17 239 0 220
 237 234 62 70 133 0 0 -17 234 0 220 239 235 68 142 140 0 0 -17 70 0 210 240 116
 68 239 133 0 124 +17 240 0 210 132 70 71 124 110 0 241 -17 116 0 210 70 132 62
 238 114 0 239 +17 124 0 113 142 73 68 240 110 0 234 +17 73 0 113 124 61 71 178
 146 0 240 +17 178 0 222 177 241 59 73 146 0 0 -15 222 507 0 178 219 0 17 177 0
 222 67 178 57 137 135 0 0 -17 241 0 222 178 67 71 132 130 0 0 -17 67 0 222 241
 177 65 145 143 0 132 -17 132 0 210 116 240 65 241 130 0 238 +17 238 0 27 145 64
 65 116 114 0 0 -17 145 0 27 40 238 57 67 143 0 177 +14 215 251 229 ?176 108 236
 5 242 -0 0 176 108 22 81 1 229 809 201 215 243 0 225 244 245 14 176 259 244 ?16
7 215 35 5 246 -0 0 167 215 22 50 242 275 0 215 246 207 0 +-.00714142842854285 -
.207 .01 1 0 0 0 0 -1 50 246 277 0 176 247 242 0 +.00714142842854285 -.207 0 -1
 0 0 0 0 1 50 207 3 0 112 242 200 0 +0 0 .01 0 0 1 1 0 0 50 247 280 0 167 195 24
6 0 +0 -.207 0 0 -1 0 0 0 -1 14 167 267 248 ?191 176 166 5 247 +0 0 191 176 22 5
1 195 368 0 191 0 247 0 +0 -.2 .01 0 0 -1 .00611 -1 0 0 81 1 248 811 201 167 249
 0 244 0 250 80 255 1 201 251 252 9000 1 1 1 1 1 1 1 1 0 FFFFTFTFFFFFFF1 81 1 24
9 763 253 167 0 248 254 255 256 81 1 244 810 201 176 254 0 229 248 257 82 255 1
 250 -764346208 81 1 254 762 253 176 0 244 243 249 258 82 1 257 -764739424 80 1
 253 0 259 8001 0 0 0 0 3 5 0 0 0 FFFFTFTFFFFFFF2 81 1 243 761 253 215 0 229 260
 254 261 83 255 3 258 .792156862745098 .819607843137255 .933333333333333 81 1 26
0 760 253 108 0 212 262 243 263 83 3 261 .792156862745098 .819607843137255 .9333
33333333333 81 1 212 804 201 108 260 0 209 218 264 81 1 262 759 253 95 0 203 202
 260 265 83 3 263 .792156862745098 .819607843137255 .933333333333333 81 1 203 80
1 201 95 262 0 199 206 266 81 1 202 758 253 161 0 199 267 262 268 83 3 265 .7921
56862745098 .819607843137255 .933333333333333 81 1 267 757 253 112 0 206 211 202
 269 83 3 268 .792156862745098 .819607843137255 .933333333333333 81 1 206 802 20
1 112 267 0 203 209 270 81 1 211 756 253 16 0 209 0 267 271 83 3 269 .7921568627
45098 .819607843137255 .933333333333333 83 3 271 .792156862745098 .8196078431372
55 .933333333333333 82 1 270 -765525856 82 1 266 -2010251157 81 1 218 805 201 19
4 272 0 212 221 273 82 1 264 -2010513301 81 1 272 765 253 194 0 218 255 274 275
 81 1 221 806 201 219 274 0 218 223 276 82 1 273 -117964642 81 1 274 766 253 219
 0 221 272 224 277 82 1 276 -115998562 81 1 224 767 253 174 0 223 274 228 278 83
 3 277 .792156862745098 .819607843137255 .933333333333333 81 1 228 768 253 18 0
 225 224 0 279 83 3 278 .792156862745098 .819607843137255 .933333333333333 83 3
 279 .792156862745098 .819607843137255 .933333333333333 81 1 255 764 253 191 0 1
93 249 272 280 83 3 275 .792156862745098 .819607843137255 .933333333333333 81 1
 193 799 201 191 255 0 0 199 281 83 3 280 .792156862745098 .819607843137255 .933
333333333333 82 1 281 1561526428 79 255 15 259 SDL/TYSA_COLOUR83 3 256 .79215686
2745098 .819607843137255 .933333333333333 79 14 252 SWEntUnchanged82 1 245 -7648
70496 17 30 0 227 170 232 55 25 31 0 150 -82 1 230 182124704 82 1 226 180158624
 82 1 213 -765329250 82 1 204 -765722464 17 36 0 35 137 33 57 40 163 0 145 +17 8
2 0 90 92 91 80 106 104 0 101 +19 17 89 0 1 0 9 5 S0 74 4 CI16 index_map_offset0
 0 1 dCCZ20 15 10 0 0 282 248 283 284 285 286 287 13 228 2 0 0 0 0 0 0 0 0 0 0 8
1 5 282 29 288 1 0 283 0 0 289 0 0 0 0 81 2 283 312 290 1 282 284 0 0 0 291 81 2
 284 319 292 1 283 285 0 0 0 293 81 2 285 392 294 1 284 286 0 0 0 295 81 2 286 5
36 296 1 285 287 0 0 0 0 81 1 287 678 297 1 286 13 0 0 298 81 2 13 693 299 1 287
 2 0 0 300 0 80 2 299 301 302 8004 0 0 0 0 3 5 0 0 0 FFTFFFFFFFFFFF2 3 83 1 300
 1 79 16 302 SDL/TYSA_DENSITY80 1 297 303 304 9000 1 1 1 1 1 1 1 1 0 FFTFFFFFFFF
FFF1 82 1 298 53765 79 10 304 BODY_MATCH80 2 296 305 306 9000 0 0 0 0 3 5 0 0 0
 FFTFFFFFFFFFFF9 1 79 16 306 BODY_RECIPE_200180 2 294 307 308 9000 0 0 0 0 3 5 0
 0 0 FFTFFFFFFFFFFF9 1 82 1 295 1 79 24 308 BODY_IN_LIGHTWEIGHT_PERM80 2 292 309
 310 9000 0 0 0 0 3 5 0 0 0 FFTFFFFFFFFFFF9 1 82 1 293 129 79 30 310 LAST_BODY_M
ODIFYING_FEATURE_ID80 2 290 311 312 9000 0 0 0 0 3 5 0 0 0 FFTFFFFFFFFFFT9 1 82
 1 291 144 79 19 312 ENT_TIME_STAMP_200180 5 288 313 314 9000 0 0 0 0 3 6 0 0 0
 FFTTTTTTFTTFTT2 2 2 2 2 83 1 289 1 79 19 314 BODY_SCALING_FACTOR80 2 12 315 316
 9000 0 0 0 0 3 5 0 0 0 FFTFFFFFFFFFFF9 1 82 1 14 107 79 12 316 ATOM_ID_20011 0
 
