**ABCDEFGHIJKLMNOPQRSTUVWXYZabcdefghijklmnopqrstuvwxyz**************************
**PARASOLID !"#$%&'()*+,-./:;<=>?@[\]^_`{|}~0123456789**************************
**PART1;
MC=AMD64;
MC_MODEL=Intel64 Family 6 Model 142 Stepping 12, GenuineIntel;
MC_ID=unknown;
OS=Windows_NT;
OS_RELEASE=unknown;
FRU=Parasolid Version 32.1, build 255,  1- 1-2021;
APPL=SOLIDWORKS 2021-2021166;
SITE=;
USER=unknown;
FORMAT=text;
GUISE=transmit;
KEY=tops;
FILE=tops.x_t;
DATE=Mon Nov  8 18:50:07 2021;
**PART2;
SCH=SCH_3201255_32001;
USFLD_SIZE=0;
**PART3;
**END_OF_HEADER*****************************************************************
T51 : TRANSMIT FILE created by modeller version 320125523 SCH_3201255_32001_1300
6229 0 12 34 CCCCCCI4 mesh1006 0 I8 polyline1008 0 CCCCCCCDI5 owner1040 0 CCCCCC
I13 boundary_mesh1006 0 I17 boundary_polyline1008 0 CCCA16 index_map_offset0 0 1
 dA9 index_map82 0 A17 node_id_index_map82 0 A20 schema_embedding_map82 0 A5 chi
ld12 0 A14 lowest_node_id0 0 1 dA16 mesh_offset_data206 0 Z1 317 2 3 0 0 0 0 0 0
 1e3 1e-8 0 4 0 1 0 1 1 5 6 7 0 0 0 8 9 0 0 0 0 0 0 0 0 81 255 2 2 309 10 1 11 0
 0 0 0 12 70 11 CI9 list_type0 0 1 uI10 notransmit0 0 1 lCCCDCCDI12 finger_index
0 0 1 dI12 finger_block1012 0 CZ3 0 4 T1 0 0 9 20 1 13 13 13 255 5 31 0 1 0 14 0
 0 15 0 54 255 6 227 0 16 17 0 0 +882172842552578e-33 .00546656849505794 1320843
584409876e-33 -167654249155924e-31 1 -224137098535669e-31 .010287 .00254 0 22413
7098535669e-31 1 31 255 7 211 0 9 18 0 0 -0 .00546656849505794 0 -16765424915592
4e-31 1 -224137098535669e-31 0 224137098535669e-31 1 .007747 19 8 CCCCCCCA5 owne
r12 0 Z8 9 0 1 15 0 19 V0 16 255 9 208 0 ?20 0 21 7 0 0 1 17 255 20 0 22 20 20 0
 23 9 0 0 +16 21 202 0 ?24 9 25 18 0 0 1 17 24 0 26 24 24 0 27 21 0 0 +16 25 174
 0 ?28 21 29 30 0 0 1 31 18 205 0 21 30 7 0 +170421673752079e-32 .00725981107277
655 256130073115166e-32 -3353084983118475e-32 1 -448274197071338e-31 0 448274197
071338e-31 1 .00848814451457124 31 30 177 0 25 31 18 0 -1583409665430395e-33 .01
08626744865764 2399793660753775e-33 -3353084983118475e-32 1 -448274197071338e-31
 0 448274197071338e-31 1 .01363015235454896 31 31 171 0 29 32 30 0 +156438675883
439e-32 .01143 237436192185297e-32 0 1 0 0 0 1 .01347528662302102 16 29 168 0 ?3
3 25 34 31 0 0 1 31 32 25 0 34 35 31 0 +0 0 0 0 1 0 0 0 1 .007747 16 34 20 0 ?36
 29 37 32 0 0 1 31 35 73 0 37 38 32 0 +0 0 0 0 1 0 0 0 1 .003937 16 37 51 0 ?39
 34 40 35 0 0 1 31 38 74 0 40 0 35 0 +0 .00635 0 0 1 0 0 0 1 .003937 16 40 103 0
 ?41 37 0 38 0 0 1 17 41 0 42 41 41 0 43 40 0 0 +15 255 42 60 0 41 44 45 17 43 0
 46 43 43 0 41 40 0 0 -15 46 111 0 43 47 0 14 255 47 107 48 ?49 44 46 5 50 -0 0
 49 44 19 81 1 48 310 51 47 52 0 0 53 54 14 49 112 53 ?55 47 56 5 57 +0 0 55 47
 19 14 44 57 58 ?47 59 42 5 60 +0 0 47 59 19 50 255 50 129 0 47 0 61 0 +0 .00635
 0 0 1 0 0 0 1 13 19 10 0 0 0 0 0 0 8 14 14 14 42 62 ?59 0 63 5 64 -0 0 59 0 19
 81 1 62 313 51 14 65 0 58 66 67 14 59 27 66 ?44 14 22 5 68 -0 0 44 14 19 15 63
 19 0 69 14 70 50 64 24 0 14 60 68 0 +0 0 0 0 1 0 0 0 1 51 255 60 70 0 44 57 64
 0 -0 .00635 0 0 -1 0 .003937 0 0 -1 51 68 30 0 59 64 17 0 -0 .00635 0 0 -1 0 .0
07747 0 0 -1 54 17 193 0 71 68 6 0 +1574606961862935e-33 .0111252 23880253193797
05e-33 -3353084983118475e-32 1 -448274197071338e-31 .01347528662302102 3048e-7 0
 448274197071338e-31 1 14 71 186 72 ?16 55 73 5 17 +0 0 16 55 19 81 1 72 315 51
 71 74 0 66 75 76 14 16 220 75 ?0 71 77 5 6 -0 0 0 71 19 14 55 121 78 ?71 49 26
 5 61 +0 0 71 49 19 15 73 187 0 79 71 80 17 79 0 73 79 79 0 28 25 0 0 -15 80 188
 0 81 71 0 17 81 0 80 81 81 0 33 29 0 0 -17 33 0 56 33 33 0 81 29 0 0 +15 56 169
 0 33 49 0 17 28 0 82 28 28 0 79 25 0 0 +15 82 175 0 28 55 0 81 1 78 317 51 55 8
3 0 75 0 84 15 26 203 0 24 55 82 124 255 61 128 0 55 50 57 0 +85 86 50 57 127 0
 49 61 60 0 +0 .01143 0 0 1 0 0 0 1 126 255 85 TF3 1 7 2 5 5 5 2 TTF8 4 87 88 89
 90 91 125 255 86 0 1 0 1 0 1 0 1 2 PPBBPPBB????0 0 0 0 45 255 56 87 -.006203554
31132952 .00635 .00464025030643659 1 -.002862793285328155 .01143 .01432167726229
996 1 .001025648767181218 .00211666666666667 .00568245297636522 .333333333333333
5 .0085935204130906 .00381 .00668242127765209 .333333333333333 .0051613516414009
 .00211666666666667 .002588952772074155 .3333333333333335 .01050204926997602 .00
381 -.002865363563881225 .333333333333333 .00620355431132953 .00635 -.0046402503
0643659 1 .00286279328532814 .01143 -.01432167726229998 1 -.001025648767181214 .
002116666666666665 -.00568245297636521 .3333333333333335 -.0085935204130906 .003
81 -.00668242127765209 .3333333333333335 -.0051613516414009 .002116666666666665
 -.002588952772074155 .3333333333333335 -.01050204926997602 .00381 .002865363563
88123 .3333333333333335 -.00620355431132952 .00635 .00464025030643659 1 -.002862
793285328155 .01143 .01432167726229996 1 127 255 5 88 1 3 3 3 1 127 2 89 2 2 128
 255 5 90 -.5 0 .5 1 1.5 128 2 91 0 1 80 255 1 51 92 93 9000 1 1 1 1 1 1 1 1 0 F
FFFTFTFFFFFFF1 81 1 83 289 94 55 0 78 95 74 96 81 1 75 316 51 16 97 0 72 78 98 8
2 255 1 84 1545011363 81 1 97 291 94 16 0 75 74 0 99 82 1 98 -1984954205 80 1 94
 0 100 8001 0 0 0 0 3 5 0 0 0 FFFFTFTFFFFFFF2 81 1 74 290 94 71 0 72 83 97 101 8
3 255 3 99 1 1 1 83 3 101 1 1 1 79 255 15 100 SDL/TYSA_COLOUR81 1 95 288 94 49 0
 53 52 83 102 83 3 96 1 1 1 81 1 53 311 51 49 95 0 48 58 103 81 1 52 287 94 47 0
 48 104 95 105 83 3 102 1 1 1 81 1 104 286 94 44 0 58 106 52 107 83 3 105 1 1 1
 81 1 58 312 51 44 104 0 53 62 108 81 1 106 285 94 59 0 66 65 104 109 83 3 107 1
 1 1 81 1 66 314 51 59 106 0 62 72 110 81 1 65 284 94 14 0 62 0 106 111 83 3 109
 1 1 1 83 3 111 1 1 1 82 1 110 -1662713693 82 1 108 -1666842491 82 1 103 1549336
737 79 14 93 SWEntUnchanged15 77 221 0 23 16 112 17 23 0 77 23 23 0 20 9 0 0 -15
 112 222 0 27 16 0 17 27 0 112 27 27 0 24 21 0 0 -82 1 76 1872036001 17 69 0 63
 69 69 0 36 34 0 0 -15 70 40 0 39 14 0 17 39 0 70 39 39 0 113 37 0 0 +17 113 0 4
5 113 113 0 39 37 0 0 -15 45 61 0 113 44 0 17 36 0 114 36 36 0 69 34 0 0 +15 114
 28 0 36 59 0 15 22 209 0 20 59 114 82 1 67 -1661009787 82 1 54 1555234975 19 15
 32 0 1 0 8 5 S0 74 4 CI16 index_map_offset0 0 1 dCCZ20 13 9 0 0 78 115 116 117
 118 119 11 97 2 0 0 0 0 0 0 0 0 0 0 0 81 2 115 153 120 1 0 116 0 0 0 121 81 2 1
16 157 122 1 115 117 0 0 0 123 81 1 117 233 124 1 116 118 0 0 125 81 2 118 243 1
26 1 117 119 0 0 127 0 81 2 119 267 128 1 118 11 0 0 0 129 81 2 11 281 130 1 119
 2 0 0 0 0 80 2 130 131 132 9000 0 0 0 0 3 5 0 0 0 FFTFFFFFFFFFFF9 1 79 16 132 B
ODY_RECIPE_200180 2 128 133 134 9000 0 0 0 0 3 5 0 0 0 FFTFFFFFFFFFFF9 1 82 1 12
9 1 79 24 134 BODY_IN_LIGHTWEIGHT_PERM80 2 126 135 136 8004 0 0 0 0 3 5 0 0 0 FF
TFFFFFFFFFFF2 3 83 1 127 1 79 16 136 SDL/TYSA_DENSITY80 1 124 137 138 9000 1 1 1
 1 1 1 1 1 0 FFTFFFFFFFFFFF1 82 1 125 40133 79 10 138 BODY_MATCH80 2 122 139 140
 9000 0 0 0 0 3 5 0 0 0 FFTFFFFFFFFFFF9 1 82 1 123 55 79 30 140 LAST_BODY_MODIFY
ING_FEATURE_ID80 2 120 141 142 9000 0 0 0 0 3 5 0 0 0 FFTFFFFFFFFFFT9 1 82 1 121
 117 79 19 142 ENT_TIME_STAMP_200180 2 10 143 144 9000 0 0 0 0 3 5 0 0 0 FFTFFFF
FFFFFFF9 1 82 1 12 102 79 12 144 ATOM_ID_20011 0 
